<svg xmlns="http://www.w3.org/2000/svg" version="1.1" xmlns:xlink="http://www.w3.org/1999/xlink" width="200" height="200"><svg xmlns="http://www.w3.org/2000/svg" version="1.1" xmlns:xlink="http://www.w3.org/1999/xlink" viewBox="0 0 200 200"><rect width="200" height="200" fill="url('#gradient')"></rect><defs><linearGradient id="SvgjsLinearGradient1006" gradientTransform="rotate(45 0.5 0.5)"><stop offset="0%" stop-color="#007ac1"></stop><stop offset="100%" stop-color="#1b3855"></stop></linearGradient></defs><g><g fill="#dee90b" transform="matrix(3.522935779816514,0,0,3.522935779816514,9.269835652287938,125.04744873134368)" stroke="#d9e241" stroke-width="0.4"><path d="M10.11-14.22L12.09-5.30L13.72-14.22L17.12-14.22L14.10 0L10.55 0L8.64-8.11L6.78 0L3.23 0L0.21-14.22L3.61-14.22L5.24-5.30L7.20-14.22L10.11-14.22ZM26.94 0L26.11-2.66L21.42-2.66L20.60 0L16.93 0L22.15-14.22L25.37-14.22L30.63 0L26.94 0ZM23.76-10.23L22.24-5.30L25.29-5.30L23.76-10.23ZM35.09-14.22L35.09-2.64L41.05-2.64L41.05 0L31.66 0L31.66-14.22L35.09-14.22ZM42.35-14.22L44.98-8.05L47.60-14.22L51.30-14.22L46.72-5.11L46.72 0L43.24 0L43.24-5.11L38.67-14.22L42.35-14.22Z"></path></g></g></svg><style>@media (prefers-color-scheme: light) { :root { filter: none; } }
@media (prefers-color-scheme: dark) { :root { filter: none; } }
</style></svg>